<?xml version="1.0" encoding="UTF-8" standalone="no"?>
<svg
   width="41.069366mm"
   height="11.052527mm"
   viewBox="0 0 41.069366 11.052527"
   version="1.1"
   id="svg3865"
   xmlns="http://www.w3.org/2000/svg"
   xmlnsSvg="http://www.w3.org/2000/svg"
   xmlnsRdf="http://www.w3.org/1999/02/22-rdf-syntax-ns#"
   xmlnsCc="http://creativecommons.org/ns#"
   xmlnsDc="http://purl.org/dc/elements/1.1/">
  <defs
     id="defs3859">
    <clipPath
       clipPathUnits="userSpaceOnUse"
       id="clipPath2015">
      <path
         d="M 0,7053 H 1440 V 0 H 0 Z"
         id="path2013" />
    </clipPath>
  </defs>
  <metadata
     id="metadata3862">
    <rdfRDF>
      <ccWork
         rdfAbout="">
        <dcFormat>image/svg+xml</dcFormat>
        <dcType
           rdfResource="http://purl.org/dc/dcmitype/StillImage" />
      </ccWork>
    </rdfRDF>
  </metadata>
  <g
     id="layer1"
     transform="translate(-117.8046,-31.515413)">
    <g
       id="g3836"
       transform="matrix(0.35277777,0,0,-0.35277777,82.684879,2508.4397)"
       style="fill:#000000;fill-opacity:1">
      <g
         id="g2009"
         transform="translate(-18.031223,12.462757)"
         style="fill:#000000;fill-opacity:1">
        <g
           id="g2011"
           clip-path="url(#clipPath2015)"
           style="fill:#000000;fill-opacity:1">
          <g
             id="g2017"
             transform="translate(158.7629,6996.7461)"
             style="fill:#000000;fill-opacity:1">
            <path
               d="M 0,0 H 16.277 C 15.298,3.182 11.993,5.752 8.138,5.752 4.283,5.752 0.979,3.182 0,0 m -0.306,-5.996 c 0.734,-3.856 4.222,-6.976 8.628,-6.976 3.12,0 5.629,0.979 6.914,2.937 h 8.016 c -2.08,-5.569 -8.016,-9.301 -14.93,-9.301 -8.873,0 -15.726,6.976 -15.726,15.665 0,8.689 6.853,15.665 15.542,15.665 8.689,0 15.542,-6.976 15.542,-15.665 0,-0.796 -0.061,-1.591 -0.183,-2.325 z"
               style="fill:#000000;fill-opacity:1;fill-rule:nonzero;stroke:none"
               id="path2019" />
          </g>
          <g
             id="g2021"
             transform="translate(218.3353,6983.8965)"
             style="fill:#000000;fill-opacity:1">
            <path
               d="m 0,0 c 5.262,0 8.811,3.854 8.811,9.179 0,5.323 -3.549,9.178 -8.811,9.178 -5.262,0 -8.811,-3.855 -8.811,-9.178 C -8.811,3.854 -5.262,0 0,0 m 0,24.843 c 9.056,0 15.665,-6.731 15.665,-15.664 C 15.665,0.244 9.056,-6.486 0,-6.486 c -9.056,0 -15.665,6.73 -15.665,15.665 0,8.933 6.609,15.664 15.665,15.664"
               style="fill:#000000;fill-opacity:1;fill-rule:nonzero;stroke:none"
               id="path2023" />
          </g>
          <g
             id="g2025"
             transform="translate(133.2482,6983.8965)"
             style="fill:#000000;fill-opacity:1">
            <path
               d="m 0,0 c -5.262,0 -8.811,3.854 -8.811,9.179 0,5.323 3.549,9.178 8.811,9.178 3.5,0 6.234,-1.711 7.678,-4.419 l 6.084,3.001 C 11.173,21.734 6.153,24.843 0,24.843 c -9.056,0 -15.665,-6.731 -15.665,-15.664 0,-8.935 6.609,-15.665 15.665,-15.665 9.056,0 15.665,6.73 15.665,15.665 H 8.811 C 8.811,3.854 5.262,0 0,0"
               style="fill:#000000;fill-opacity:1;fill-rule:nonzero;stroke:none"
               id="path2027" />
          </g>
          <g
             id="g2029"
             transform="translate(202.0829,7008.3726)"
             style="fill:#000000;fill-opacity:1">
            <path
               d="m 0,0 h -9.41 -6.927 V -6.927 -30.595 H -9.41 V -6.927 H 0 Z"
               style="fill:#000000;fill-opacity:1;fill-rule:nonzero;stroke:none"
               id="path2031" />
          </g>
        </g>
      </g>
    </g>
  </g>
</svg>
